<?xml version="1.0" encoding="UTF-8"?>
<svg version="1.1" xmlns="http://www.w3.org/2000/svg" width="1024" height="1024">
<path d="M0 0 C337.92 0 675.84 0 1024 0 C1024 337.92 1024 675.84 1024 1024 C686.08 1024 348.16 1024 0 1024 C0 686.08 0 348.16 0 0 Z " fill="#130E0A" transform="translate(0,0)"/>
<path d="M0 0 C13.61133619 11.92903621 22.58750478 30.12931337 24.30712891 48.14550781 C25.41353311 70.69732116 19.89860498 90.57030989 4.96875 107.7890625 C3.70179813 109.16115561 2.4065068 110.5075557 1.0859375 111.828125 C1.44618949 115.36932544 3.27915906 117.99232936 5.1484375 120.953125 C8.0859375 125.61165441 8.0859375 125.61165441 8.0859375 127.828125 C3.99252251 127.85282075 -0.10086371 127.87098293 -4.19433594 127.88305664 C-5.58724727 127.8880893 -6.9801533 127.89491598 -8.37304688 127.90356445 C-10.37367496 127.91567652 -12.37434138 127.92082912 -14.375 127.92578125 C-15.57946777 127.93101807 -16.78393555 127.93625488 -18.02490234 127.94165039 C-20.9140625 127.828125 -20.9140625 127.828125 -22.9140625 126.828125 C-25.56090065 127.55079113 -28.12853749 128.33326088 -30.7265625 129.203125 C-32.14894954 129.67167602 -33.57211239 130.13787939 -34.99609375 130.6015625 C-35.62749268 130.81216309 -36.2588916 131.02276367 -36.90942383 131.23974609 C-55.71706023 136.75995115 -79.26840489 134.10853297 -96.6015625 125.265625 C-115.15111646 115.04107985 -127.91006875 98.96470876 -134.234375 78.796875 C-140.02952536 58.36019863 -137.78684993 37.69417604 -127.83203125 19.015625 C-124.9420935 14.21279566 -121.66847809 9.98117545 -117.9140625 5.828125 C-116.97433594 4.76658203 -116.97433594 4.76658203 -116.015625 3.68359375 C-86.23326843 -28.10451336 -32.27909127 -26.04979296 0 0 Z " fill="#F44141" transform="translate(314.9140625,386.171875)"/>
<path d="M0 0 C9.37499873 0.1664201 18.57679462 3.84158894 25.3125 10.3125 C27.8125 13.1875 27.8125 13.1875 29.3125 15.3125 C29.96605469 14.51585937 29.96605469 14.51585937 30.6328125 13.703125 C36.10699575 7.20993794 41.60397017 2.07545221 50.41625977 1.07324219 C60.28471969 0.50433343 68.99241056 0.33732095 77.3125 6.3125 C78.7046875 7.17875 78.7046875 7.17875 80.125 8.0625 C86.8260026 14.95495981 89.57484963 23.87162549 89.53955078 33.34936523 C89.53984283 34.01363022 89.54013489 34.6778952 89.54043579 35.36228943 C89.53905563 37.53202932 89.52355749 39.70141474 89.5078125 41.87109375 C89.50407768 43.38566399 89.50123292 44.90023665 89.49923706 46.41481018 C89.49163751 50.38173206 89.47202107 54.34850515 89.4498291 58.31536865 C89.42929101 62.37103259 89.42021838 66.42672081 89.41015625 70.48242188 C89.3887713 78.4258568 89.3536196 86.36914269 89.3125 94.3125 C80.7325 94.3125 72.1525 94.3125 63.3125 94.3125 C63.27511719 90.06246094 63.23773437 85.81242188 63.19921875 81.43359375 C63.16107622 78.03141495 63.12000372 74.62929941 63.0769577 71.22718048 C63.03241141 67.64325621 62.99295319 64.05944574 62.96606445 60.4753418 C62.93993513 57.01918193 62.8994665 53.5634529 62.84931374 50.10756111 C62.8246637 48.15631509 62.81462513 46.20490204 62.80485535 44.25352478 C62.70008613 37.89820989 62.55564399 32.86241495 59.3125 27.3125 C54.71064219 23.45795243 50.16906435 23.87788025 44.41796875 24.02734375 C40.70125344 24.36862704 38.29484424 25.03650045 35.3125 27.3125 C32.51933562 31.14043451 31.92800864 33.86955117 31.88012695 38.5715332 C31.86033279 39.81244217 31.84053864 41.05335114 31.82014465 42.3318634 C31.81337598 43.67566781 31.80692899 45.01947386 31.80078125 46.36328125 C31.78392532 47.74620654 31.76577384 49.12911659 31.74638367 50.51200867 C31.6989761 54.14017984 31.6691074 57.76828922 31.64294434 61.39666748 C31.61309181 65.10376179 31.56657771 68.81064342 31.52148438 72.51757812 C31.43555644 79.78246455 31.36970614 87.04732023 31.3125 94.3125 C22.7325 94.3125 14.1525 94.3125 5.3125 94.3125 C5.27511719 90.13464844 5.23773437 85.95679688 5.19921875 81.65234375 C5.161075 78.30751189 5.12000251 74.96274433 5.0769577 71.61797333 C5.0324153 68.09470313 4.99295634 64.57154859 4.96606445 61.0480957 C4.93492357 56.999219 4.88013901 52.95095462 4.82421875 48.90234375 C4.81782883 47.64791977 4.8114389 46.39349579 4.80485535 45.10105896 C4.68429588 37.90984494 4.44869531 32.23274414 -0.1875 26.4375 C-4.9590549 22.85883382 -12.06412435 23.93207483 -17.6875 24.3125 C-21.4612379 25.54872449 -22.99483834 26.36323132 -25.30891418 29.53459167 C-26.92001867 32.7810349 -27.08308207 34.95865975 -27.11987305 38.5715332 C-27.13966721 39.81244217 -27.15946136 41.05335114 -27.17985535 42.3318634 C-27.18662402 43.67566781 -27.19307101 45.01947386 -27.19921875 46.36328125 C-27.21607468 47.74620654 -27.23422616 49.12911659 -27.25361633 50.51200867 C-27.3010239 54.14017984 -27.3308926 57.76828922 -27.35705566 61.39666748 C-27.38690819 65.10376179 -27.43342229 68.81064342 -27.47851562 72.51757812 C-27.56444356 79.78246455 -27.63029386 87.04732023 -27.6875 94.3125 C-36.2675 94.3125 -44.8475 94.3125 -53.6875 94.3125 C-53.6875 64.2825 -53.6875 34.2525 -53.6875 3.3125 C-45.4375 3.3125 -37.1875 3.3125 -28.6875 3.3125 C-28.3575 5.6225 -28.0275 7.9325 -27.6875 10.3125 C-24.99204741 10.3125 -24.43885095 9.32349597 -22.5 7.5 C-15.71005484 1.55178358 -8.64138849 0.73232106 0 0 Z " fill="#F6F2E7" transform="translate(751.6875,558.6875)"/>
<path d="M0 0 C11.09393345 8.17942551 17.30665 18.50298764 20 32 C21.42981791 45.71457996 18.47903253 58.41362994 11 70 C7.40203262 66.83322225 5.82658107 63.62415488 3.78125 59.33203125 C1.59129368 55.38065735 -0.18152347 53.2584605 -4.64453125 51.84912109 C-8.93557519 51.34115811 -13.19305647 51.50268712 -17.5 51.6875 C-19.00515285 51.70451562 -20.51038451 51.71563553 -22.015625 51.72070312 C-25.68048063 51.74576853 -29.33785261 51.85080376 -33 52 C-26.63886967 63.52856707 -19.93163151 74.80573902 -13 86 C-17.57850875 90.57850875 -25.74550365 90.16979554 -31.875 90.3125 C-44.76151869 90.06146392 -55.79535496 86.3967509 -65.54296875 77.7421875 C-75.66848721 67.19265235 -80.96630703 53.85119758 -81.3125 39.25 C-80.83536766 26.02389158 -75.65497203 14.82796914 -66.48046875 5.25390625 C-47.48619697 -12.00545567 -21.55047146 -13.3379945 0 0 Z " fill="#110B09" transform="translate(289,403)"/>
<path d="M0 0 C8.91 0 17.82 0 27 0 C27.33 24.09 27.66 48.18 28 73 C31.96 68.71 35.92 64.42 40 60 C44.8125 55.1875 44.8125 55.1875 46.984375 53.046875 C48.92940099 51.07169357 50.75480368 49.03833626 52.5625 46.9375 C53.09979736 46.33317139 53.63709473 45.72884277 54.19067383 45.10620117 C56.01391034 43.04870256 56.01391034 43.04870256 57.50561523 40.88305664 C60.55418549 37.0715676 62.75498251 35.22013063 67.64672852 34.35522461 C71.93957807 34.11497863 76.20919518 34.30034007 80.5 34.5 C82.00511337 34.54018821 83.51033023 34.57667963 85.015625 34.609375 C88.67925685 34.69693298 92.33895895 34.83462983 96 35 C96 35.66 96 36.32 96 37 C95.34 37 94.68 37 94 37 C93.73662842 37.59006836 93.47325684 38.18013672 93.2019043 38.78808594 C91.94798348 41.09572815 90.64804739 42.56727394 88.76953125 44.390625 C88.13515137 45.01340332 87.50077148 45.63618164 86.84716797 46.27783203 C86.17572754 46.92864746 85.50428711 47.57946289 84.8125 48.25 C83.43433998 49.60488357 82.05800937 50.96163071 80.68359375 52.3203125 C80.06540771 52.92633301 79.44722168 53.53235352 78.81030273 54.15673828 C76.37886365 56.63244497 74.11803798 59.23256814 71.8984375 61.8984375 C70.21378137 63.76334491 68.47843646 65.48990472 66.6640625 67.2265625 C66.06287598 67.80647949 65.46168945 68.38639648 64.84228516 68.98388672 C63.63109741 70.1449962 62.40961052 71.2954737 61.17724609 72.43408203 C59.28573543 74.19786056 59.28573543 74.19786056 57 77 C57.43921899 81.52195911 60.60488498 84.36650725 63.5 87.625 C64.04245361 88.24673096 64.58490723 88.86846191 65.14379883 89.5090332 C69.00034303 93.91561936 72.9324273 98.25314568 76.8671875 102.58984375 C79.85622119 105.96756131 82.68129575 109.46882878 85.515625 112.9765625 C88.99791295 117.21444123 92.58697172 121.358282 96.19067383 125.49316406 C100 129.89306903 100 129.89306903 100 131 C95.32306155 131.24920157 90.65006167 131.42952201 85.96801758 131.54931641 C84.3797673 131.59928673 82.79196969 131.66729737 81.20532227 131.75439453 C68.06760344 132.45694634 68.06760344 132.45694634 63.05224609 128.92285156 C60.76653295 126.39636344 58.86369074 123.84778275 57 121 C56.1646875 119.9996875 55.329375 118.999375 54.46875 117.96875 C53.8190625 117.1540625 53.169375 116.339375 52.5 115.5 C48.89839329 111.04801393 45.13482258 106.79284585 41.27734375 102.5625 C38.01272019 98.88909853 34.92978016 95.07683463 31.84765625 91.25 C30.04394839 88.97880251 30.04394839 88.97880251 28 87 C27.67 101.85 27.34 116.7 27 132 C18.09 132 9.18 132 0 132 C0 88.44 0 44.88 0 0 Z " fill="#F7F3E7" transform="translate(602,381)"/>
<path d="M0 0 C1.01586182 0.00161133 2.03172363 0.00322266 3.07836914 0.00488281 C14.41527813 0.18809833 28.58525774 1.96025774 37 10.375 C37.22705078 12.89697266 37.22705078 12.89697266 37.1953125 16.0390625 C37.18886719 17.16054688 37.18242187 18.28203125 37.17578125 19.4375 C37.15064453 21.2009375 37.15064453 21.2009375 37.125 23 C37.11597656 24.18335938 37.10695313 25.36671875 37.09765625 26.5859375 C37.07402812 29.51582523 37.04108514 32.4453134 37 35.375 C35.90244385 34.74549438 35.90244385 34.74549438 34.78271484 34.10327148 C28.39230527 30.46320281 22.01322912 27.59149867 15 25.375 C14.39542969 25.18164062 13.79085937 24.98828125 13.16796875 24.7890625 C6.08515737 23.43630933 -3.31976923 23.01873531 -9.875 26.1875 C-12.92522574 28.32265802 -14.7025828 29.70320228 -15.37109375 33.4609375 C-15.48534327 37.39918568 -15.44002162 39.69925251 -13.25 43.0625 C-5.58145272 48.51896633 2.76043738 51.70614352 11.5625 54.8125 C23.33436908 59.01311106 34.32025366 64.34977491 40.3125 75.90625 C44.60706669 86.28478616 43.83447984 95.90189604 40.26171875 106.39453125 C38.44422036 110.68787885 36.2008141 114.00409433 33 117.375 C32.48695313 117.91640625 31.97390625 118.4578125 31.4453125 119.015625 C19.89528414 129.95775713 4.00736791 131.03226456 -11.1015625 130.6953125 C-21.49859925 130.20531354 -37.44376565 127.93123435 -45 120.375 C-45.31884766 117.66943359 -45.31884766 117.66943359 -45.4140625 114.2734375 C-45.45273438 113.06171875 -45.49140625 111.85 -45.53125 110.6015625 C-45.57765625 108.69503906 -45.57765625 108.69503906 -45.625 106.75 C-45.66367188 105.47125 -45.70234375 104.1925 -45.7421875 102.875 C-45.83671049 99.70847983 -45.92226357 96.5419696 -46 93.375 C-42.35904319 94.80167617 -38.95559954 96.41777277 -35.5 98.25 C-23.92060117 104.10410893 -9.95829305 108.83273729 3.0546875 105.62109375 C9.60612609 103.46019433 9.60612609 103.46019433 14 98.375 C15.16476007 94.6669347 15.31178506 91.40628904 14.1875 87.6875 C9.04472043 82.25084731 1.79060196 80.26190496 -5.1418457 77.93725586 C-19.46555571 73.13318837 -34.57499036 67.39027544 -42.5 53.5625 C-45.75499942 45.23609524 -45.80879128 32.45456893 -42.375 24.1875 C-41.26171875 22.21875 -41.26171875 22.21875 -40 20.375 C-39.55269531 19.6840625 -39.10539062 18.993125 -38.64453125 18.28125 C-29.2723005 4.81337954 -15.97728765 -0.02629357 0 0 Z " fill="#F7F3E7" transform="translate(300,525.625)"/>
<path d="M0 0 C9.50443345 7.27081457 15.78369283 16.62185154 18.34375 28.4375 C20.06787863 42.61366872 20.06787863 42.61366872 17.49650574 46.42085266 C14.76095136 48.36364917 12.65023497 48.10991432 9.31762695 48.09057617 C8.01650467 48.09034958 6.71538239 48.09012299 5.37483215 48.08988953 C3.9543117 48.07456952 2.53379474 48.05892153 1.11328125 48.04296875 C-0.33974266 48.03737276 -1.79277224 48.03310267 -3.24580383 48.03010559 C-7.06820329 48.01865695 -10.8902602 47.98918999 -14.71252441 47.95599365 C-18.61364101 47.92529295 -22.51481302 47.91160028 -26.41601562 47.89648438 C-34.0691665 47.86431998 -41.72203523 47.81312383 -49.375 47.75 C-48.91731033 49.20376311 -48.45267996 50.65534236 -47.98510742 52.10595703 C-47.72710861 52.91453156 -47.4691098 53.72310608 -47.20329285 54.55618286 C-45.33942132 59.49283457 -40.95017961 62.29376538 -36.49609375 64.8125 C-24.3645316 70.08048524 -10.29686542 67.79294308 1.625 63.25 C3.62971246 62.42806789 5.63016998 61.59563446 7.625 60.75 C9.29041531 60.08021341 10.95664666 59.41243441 12.625 58.75 C12.68966978 61.98124376 12.66525406 65.20599387 12.625 68.4375 C12.64433594 69.34951172 12.66367187 70.26152344 12.68359375 71.20117188 C12.53959204 77.80125018 12.53959204 77.80125018 10.0234375 80.41137695 C7.9452566 81.75412053 5.89913243 82.77905365 3.625 83.75 C2.490625 84.27207031 1.35625 84.79414062 0.1875 85.33203125 C-15.15886458 90.63258481 -32.92319746 91.42673841 -48.17578125 85.36328125 C-60.47356267 79.16183592 -69.88861187 70.19413684 -74.28125 57.03515625 C-78.34172823 42.72948988 -77.02236792 28.34265029 -69.94140625 15.1953125 C-62.61154741 3.75268998 -52.31148362 -3.49159738 -39.17578125 -6.8046875 C-25.53334471 -8.97377783 -11.7151785 -7.68698649 0 0 Z " fill="#F6F2E7" transform="translate(570.375,567.25)"/>
<path d="M0 0 C8.32075261 6.97144138 12.38139014 13.81663874 13.87890625 24.57421875 C13.96208923 26.72773022 13.99675918 28.88346115 13.99243164 31.03857422 C13.99231834 32.9298555 13.99231834 32.9298555 13.99220276 34.85934448 C13.98709734 36.22003215 13.98188136 37.5807194 13.9765625 38.94140625 C13.97469537 40.34530588 13.97327286 41.74920617 13.97227478 43.15310669 C13.96847283 46.83229397 13.95866258 50.51144123 13.9475708 54.19061279 C13.93730656 57.95128844 13.93276645 61.71197061 13.92773438 65.47265625 C13.91703804 72.83986403 13.89946026 80.20703066 13.87890625 87.57421875 C5.62890625 87.57421875 -2.62109375 87.57421875 -11.12109375 87.57421875 C-11.61609375 83.61421875 -11.61609375 83.61421875 -12.12109375 79.57421875 C-13.51328125 80.93546875 -13.51328125 80.93546875 -14.93359375 82.32421875 C-24.32812087 90.17469488 -35.25837429 90.57509926 -46.99511719 89.79736328 C-55.19201722 88.93700882 -61.77846202 84.72932443 -67.12109375 78.57421875 C-72.45876257 71.27638907 -71.98201142 62.18339544 -71.12109375 53.57421875 C-69.50081701 46.93108411 -64.80023536 42.1596676 -59.12109375 38.57421875 C-47.38006061 33.33341157 -36.87337113 32.42521266 -24.18359375 32.51171875 C-22.92740234 32.51623047 -21.67121094 32.52074219 -20.37695312 32.52539062 C-17.29161712 32.53712194 -14.20638059 32.55353775 -11.12109375 32.57421875 C-11.42446152 30.9693054 -11.73268874 29.36531009 -12.04296875 27.76171875 C-12.2140918 26.86839844 -12.38521484 25.97507812 -12.56152344 25.0546875 C-13.25121972 21.99739508 -14.04665243 19.94500883 -16.12109375 17.57421875 C-21.05287137 15.44987618 -25.53365465 15.22394539 -30.80859375 15.26171875 C-31.60587891 15.2659082 -32.40316406 15.27009766 -33.22460938 15.27441406 C-43.52808947 15.4707902 -51.45125552 18.70628346 -61.12109375 22.57421875 C-61.12109375 15.31421875 -61.12109375 8.05421875 -61.12109375 0.57421875 C-55.06343841 -2.11807251 -50.42705778 -4.14794024 -44.12109375 -5.17578125 C-43.39833252 -5.29646973 -42.67557129 -5.4171582 -41.9309082 -5.54150391 C-28.07607676 -7.65873417 -12.0035186 -8.34482608 0 0 Z " fill="#F6F2E6" transform="translate(667.12109375,565.42578125)"/>
<path d="M0 0 C8.91 0 17.82 0 27 0 C27.03738281 4.2384375 27.07476562 8.476875 27.11328125 12.84375 C27.15143395 16.24039734 27.19250636 19.6369817 27.2355423 23.03356934 C27.28005586 26.60959705 27.31952051 30.1855116 27.34643555 33.76171875 C27.37259851 37.21139862 27.4130901 40.66064928 27.46318626 44.11006165 C27.48779316 46.05516814 27.49786607 48.00044115 27.50764465 49.94567871 C27.6342046 57.62233933 27.89885894 64.19860129 32.9375 70.375 C38.81546109 75.00612086 44.74978146 74.67068766 52 74 C56.18054233 72.99401935 59.60402421 71.67594866 62.40234375 68.31640625 C65.43409273 63.2994551 66.11939263 58.87489268 66.20532227 53.12988281 C66.22526749 51.94896057 66.24521271 50.76803833 66.26576233 49.55133057 C66.28247482 48.28142273 66.29918732 47.01151489 66.31640625 45.703125 C66.3475779 43.74726471 66.3475779 43.74726471 66.37937927 41.75189209 C66.43445236 38.29304192 66.4839264 34.8341336 66.53222656 31.37518311 C66.58254972 27.84251771 66.63812809 24.30993525 66.69335938 20.77734375 C66.80125562 13.85162641 66.90039306 6.9258614 67 0 C75.58 0 84.16 0 93 0 C93 31.35 93 62.7 93 95 C84.42 95 75.84 95 67 95 C66.67 91.04 66.34 87.08 66 83 C64.2675 84.85625 64.2675 84.85625 62.5 86.75 C54.70872025 94.50020095 45.94539284 96.95560493 35.125 97.375 C25.46062964 97.17826981 17.007203 93.65376951 10 87 C2.50848701 78.94662353 -0.1345799 69.30864722 -0.11352539 58.46557617 C-0.11344986 57.16460495 -0.11337433 55.86363373 -0.11329651 54.52323914 C-0.10819062 53.11314861 -0.10297464 51.70305849 -0.09765625 50.29296875 C-0.09578979 48.84279937 -0.09436696 47.39262935 -0.09336853 45.94245911 C-0.0895613 42.13667034 -0.07974642 38.33092009 -0.06866455 34.52514648 C-0.05841177 30.63721233 -0.05386264 26.74927192 -0.04882812 22.86132812 C-0.03812246 15.24086587 -0.02054028 7.62044325 0 0 Z " fill="#F6F2E6" transform="translate(354,417)"/>
<path d="M0 0 C1.06412109 -0.01611328 2.12824219 -0.03222656 3.22460938 -0.04882812 C12.06274931 -0.05422052 19.7528355 1.34516775 27.6875 5.3125 C27.6875 13.5625 27.6875 21.8125 27.6875 30.3125 C24.46484375 28.78255208 21.2421875 27.25260417 18.01953125 25.72265625 C9.75473356 22.2248931 -0.20667147 21.83592822 -8.6875 24.875 C-15.3197839 27.94350797 -20.63853176 33.11425465 -23.65234375 39.8203125 C-26.12903635 49.17019345 -25.0147585 58.91677202 -20.3125 67.3125 C-17.21474045 72.22618756 -13.08481624 75.03818288 -7.56640625 76.90234375 C2.75308829 78.78024137 12.16960926 77.50526859 21.6875 73.3125 C23.6675 72.6525 25.6475 71.9925 27.6875 71.3125 C27.6875 78.9025 27.6875 86.4925 27.6875 94.3125 C12.68003296 101.81623352 -4.14597925 104.68928133 -20.5 99.25 C-33.39232669 94.22537049 -42.83046363 86.05616623 -48.75 73.5 C-54.23294093 60.99530909 -54.97636191 43.69024083 -50.1875 30.8125 C-48.7890625 27.89453125 -48.7890625 27.89453125 -47.3125 25.3125 C-46.86648438 24.49136719 -46.42046875 23.67023438 -45.9609375 22.82421875 C-39.30459708 11.7613066 -28.85202245 5.02625279 -16.7109375 1.16796875 C-11.19452269 -0.12000187 -5.63684721 -0.0168869 0 0 Z " fill="#F7F3E8" transform="translate(559.3125,413.6875)"/>
<path d="M0 0 C8.58 0 17.16 0 26 0 C26 7.59 26 15.18 26 23 C34.25 23 42.5 23 51 23 C51 29.93 51 36.86 51 44 C42.75 44 34.5 44 26 44 C26.07417648 49.71158878 26.1571655 55.42166221 26.26245117 61.13256836 C26.29560159 63.07324235 26.323664 65.01401046 26.34643555 66.95483398 C26.38016384 69.75284747 26.43248819 72.5500061 26.48828125 75.34765625 C26.49467117 76.2083522 26.5010611 77.06904816 26.50764465 77.95582581 C26.63778474 83.3491739 27.39961969 87.2373239 30 92 C36.16807751 96.15674789 42.76662293 95.22371269 50 95 C50 101.27 50 107.54 50 114 C43.39379807 115.88748627 38.41578782 116.39820435 31.6875 116.4375 C30.70587891 116.47037109 29.72425781 116.50324219 28.71289062 116.53710938 C20.74182324 116.59513832 14.1259157 114.69088808 8.08740234 109.2890625 C-0.22676886 100.55691983 -0.16135722 88.96272635 -0.09765625 77.59375 C-0.0962413 76.6284436 -0.09482635 75.66313721 -0.09336853 74.6685791 C-0.0878108 71.61235335 -0.0752663 68.55620327 -0.0625 65.5 C-0.05747953 63.41666773 -0.05291758 61.3333343 -0.04882812 59.25 C-0.03785524 54.16663791 -0.02062011 49.08333174 0 44 C-5.61 44 -11.22 44 -17 44 C-17 37.07 -17 30.14 -17 23 C-11.39 23 -5.78 23 0 23 C0 15.41 0 7.82 0 0 Z " fill="#F6F2E6" transform="translate(367,539)"/>
<path d="M0 0 C0 8.25 0 16.5 0 25 C-2.289375 24.9175 -4.57875 24.835 -6.9375 24.75 C-15.04406701 24.64583398 -20.32661271 26.30618265 -26.8125 31.0625 C-32.49696702 38.69592714 -33.5979041 47.3017332 -33.609375 56.57421875 C-33.62591125 57.62406448 -33.64244751 58.67391022 -33.65948486 59.75556946 C-33.7075683 63.06627482 -33.72924757 66.37652226 -33.75 69.6875 C-33.77819281 71.94989234 -33.8081248 74.21226372 -33.83984375 76.47460938 C-33.91654925 81.98327559 -33.95743951 87.49054434 -34 93 C-42.58 93 -51.16 93 -60 93 C-60 62.97 -60 32.94 -60 2 C-51.75 2 -43.5 2 -35 2 C-34.34 6.29 -33.68 10.58 -33 15 C-31.68 13.4325 -30.36 11.865 -29 10.25 C-20.34884739 0.6179293 -13.13464856 0 0 0 Z " fill="#F8F4E9" transform="translate(492,560)"/>
<path d="M0 0 C8.58 0 17.16 0 26 0 C26 31.35 26 62.7 26 95 C17.42 95 8.84 95 0 95 C0 63.65 0 32.3 0 0 Z " fill="#F8F4E9" transform="translate(468,417)"/>
<path d="M0 0 C3.43993192 2.45709423 4.87366493 3.96817562 6.625 7.875 C7.37011194 14.53077521 7.79850584 20.33871674 3.625 25.875 C1.11942001 28.45994225 -0.21362808 28.85314376 -3.8359375 29.34375 C-15.70494527 29.43851254 -15.70494527 29.43851254 -19.25 26.5625 C-23.39497885 21.32032086 -23.10592436 15.29901301 -22.375 8.875 C-20.86524895 5.01607631 -19.04040583 1.93765435 -15.5078125 -0.31640625 C-10.47610694 -2.22403089 -5.01095769 -1.67031923 0 0 Z " fill="#F7F4E9" transform="translate(489.375,379.125)"/>
<path d="M0 0 C1.09731445 0.00676758 1.09731445 0.00676758 2.21679688 0.01367188 C3.99873419 0.02531852 5.78062863 0.04324809 7.5625 0.0625 C7.69504784 6.54175032 7.4179247 11.7960672 3.015625 16.83203125 C-3.04415731 22.34214304 -8.74783198 23.47385082 -16.80859375 23.3203125 C-20.24404472 22.98340349 -22.60599825 22.02277044 -25.4375 20.0625 C-28.12027915 16.03833127 -28.23519475 12.79050327 -27.4375 8.0625 C-24.1847536 3.42980058 -20.87597673 2.18770208 -15.4375 1.0625 C-10.22749909 0.17826297 -5.26121475 -0.0625762 0 0 Z " fill="#0F0C09" transform="translate(648.4375,612.9375)"/>
<path d="M0 0 C4.11888487 1.90818395 7.15400272 4.25454864 9.38671875 8.2734375 C9.88171875 12.7284375 9.88171875 12.7284375 10.38671875 17.2734375 C-3.47328125 17.2734375 -17.33328125 17.2734375 -31.61328125 17.2734375 C-30.48002257 9.34062675 -30.48002257 9.34062675 -27.42578125 6.0234375 C-26.85472656 5.37890625 -26.28367187 4.734375 -25.6953125 4.0703125 C-18.55760083 -2.08981389 -8.87494756 -2.46747421 0 0 Z " fill="#0D0A08" transform="translate(552.61328125,581.7265625)"/>
<path d="M0 0 C8.91 0 17.82 0 27 0 C27.33 24.09 27.66 48.18 28 73 C29.32 72.01 30.64 71.02 32 70 C31.25 71.9375 31.25 71.9375 30 74 C27.875 74.75 27.875 74.75 26 75 C24.53455824 72.06911647 24.92625471 69.52664799 24.97827148 66.25537109 C24.98787903 65.56257553 24.99748657 64.86977997 25.00738525 64.1559906 C25.04041653 61.86170418 25.08073296 59.56760574 25.12109375 57.2734375 C25.14539084 55.6844652 25.16923461 54.0954859 25.19264221 52.50650024 C25.25552407 48.32084194 25.32457905 44.13530716 25.39489746 39.94976807 C25.46554391 35.68011102 25.53038294 31.41036627 25.59570312 27.140625 C25.72476834 18.76031771 25.86088818 10.38014655 26 2 C18.08 2 10.16 2 2 2 C2 44.24 2 86.48 2 130 C9.92 130 17.84 130 26 130 C25.67 115.15 25.34 100.3 25 85 C25.99 85 26.98 85 28 85 C27.67 100.51 27.34 116.02 27 132 C18.09 132 9.18 132 0 132 C0 88.44 0 44.88 0 0 Z " fill="#EBE8E3" transform="translate(602,381)"/>
<path d="M0 0 C8.58 0 17.16 0 26 0 C26 31.35 26 62.7 26 95 C17.75 95 9.5 95 1 95 C1 92.03 1 89.06 1 86 C1.33 86 1.66 86 2 86 C2 88.64 2 91.28 2 94 C9.59 94 17.18 94 25 94 C25 63.64 25 33.28 25 2 C17.41 2 9.82 2 2 2 C2.01047363 3.64516602 2.02094727 5.29033203 2.03173828 6.98535156 C2.06791041 13.08314848 2.09089044 19.18093589 2.10986328 25.27880859 C2.11992719 27.91912429 2.13357952 30.55942883 2.15087891 33.19970703 C2.17510971 36.99254103 2.18647923 40.78522779 2.1953125 44.578125 C2.20563507 45.76053772 2.21595764 46.94295044 2.22659302 48.16119385 C2.22674408 49.26203308 2.22689514 50.36287231 2.22705078 51.49707031 C2.231492 52.46525696 2.23593323 53.4334436 2.24050903 54.43096924 C2 57 2 57 0 61 C0 40.87 0 20.74 0 0 Z " fill="#FDFDFA" transform="translate(421,417)"/>
<path d="M0 0 C0.66 0 1.32 0 2 0 C2 19.47 2 38.94 2 59 C10.58 59 19.16 59 28 59 C28 59.33 28 59.66 28 60 C22.41107843 61.17217315 16.93281141 61.18361299 11.25 61.1875 C10.29222656 61.19974609 9.33445312 61.21199219 8.34765625 61.22460938 C6.97673828 61.22750977 6.97673828 61.22750977 5.578125 61.23046875 C4.74700195 61.23457764 3.91587891 61.23868652 3.05957031 61.24291992 C1 61 1 61 -1 59 C-1.24723816 56.5643158 -1.24723816 56.5643158 -1.24291992 53.46459961 C-1.24599655 52.30677475 -1.24907318 51.14894989 -1.25224304 49.95603943 C-1.24505753 48.70081985 -1.23787201 47.44560028 -1.23046875 46.15234375 C-1.23001053 44.87017471 -1.22955231 43.58800568 -1.2290802 42.26698303 C-1.22751538 39.55252676 -1.21922513 36.83820239 -1.20581055 34.1237793 C-1.1888037 30.6375801 -1.18499668 27.1515257 -1.18575573 23.66528988 C-1.1854191 20.34845496 -1.17658537 17.03166794 -1.16796875 13.71484375 C-1.16685593 12.45759995 -1.1657431 11.20035614 -1.16459656 9.90501404 C-1.15821671 8.75034134 -1.15183685 7.59566864 -1.14526367 6.40600586 C-1.13954597 4.87283974 -1.13954597 4.87283974 -1.13371277 3.30870056 C-1 1 -1 1 0 0 Z " fill="#26231F" transform="translate(755,594)"/>
<path d="M0 0 C0 0.99 0 1.98 0 3 C-10.89 3.495 -10.89 3.495 -22 4 C-21.97679687 6.71992187 -21.95359375 9.43984375 -21.9296875 12.2421875 C-21.91410007 14.86994968 -21.90195016 17.49770675 -21.89013672 20.12548828 C-21.88006516 21.95493873 -21.86640724 23.78437303 -21.84912109 25.61376953 C-21.82492323 28.23994934 -21.81352868 30.86591675 -21.8046875 33.4921875 C-21.79436493 34.31306854 -21.78404236 35.13394958 -21.77340698 35.97970581 C-21.77300816 37.98789142 -21.8775046 39.99555382 -22 42 C-22.66 42.66 -23.32 43.32 -24 44 C-25.71802382 40.56395235 -25.1196618 36.61561104 -25.09765625 32.8359375 C-25.0962413 31.92872955 -25.09482635 31.02152161 -25.09336853 30.08682251 C-25.08776096 27.18284845 -25.07520718 24.27895085 -25.0625 21.375 C-25.05748598 19.40885528 -25.0529229 17.44270935 -25.04882812 15.4765625 C-25.03863899 10.65098834 -25.01906507 5.82558 -25 1 C-12.625 0.505 -12.625 0.505 0 0 Z " fill="#1F1C1A" transform="translate(418,582)"/>
<path d="M0 0 C0.66 0.33 1.32 0.66 2 1 C0 6 0 6 -1.05612183 8.34770203 C-2.06226478 11.17496406 -2.24188799 13.25957035 -2.22705078 16.24926758 C-2.22689972 17.26994827 -2.22674866 18.29062897 -2.22659302 19.34223938 C-2.21627045 20.4319957 -2.20594788 21.52175201 -2.1953125 22.64453125 C-2.19106766 24.33191658 -2.19106766 24.33191658 -2.18673706 26.0533905 C-2.17555836 29.63986936 -2.15045763 33.22609685 -2.125 36.8125 C-2.11496723 39.24674118 -2.1058419 41.68098628 -2.09765625 44.11523438 C-2.07732975 50.07699725 -2.03817577 56.03821783 -2 62 C-11.57 61.67 -21.14 61.34 -31 61 C-31 60.67 -31 60.34 -31 60 C-22.42 60 -13.84 60 -5 60 C-5.04640625 56.66261719 -5.0928125 53.32523438 -5.140625 49.88671875 C-5.17189737 46.62330645 -5.19614142 43.35991141 -5.21972656 40.09643555 C-5.23973464 37.84342877 -5.26694991 35.59047321 -5.30175781 33.33764648 C-5.35075342 30.08304133 -5.37307756 26.82912783 -5.390625 23.57421875 C-5.41127014 22.58105148 -5.43191528 21.58788422 -5.45318604 20.56462097 C-5.45543744 13.40954767 -3.97894562 7.51444079 -1 1 C-0.67 0.67 -0.34 0.34 0 0 Z " fill="#2C2824" transform="translate(463,593)"/>
<path d="M0 0 C4.0081803 3.67416528 6.52591615 7.14346504 9 12 C9 12.66 9 13.32 9 14 C1.08 13.67 -6.84 13.34 -15 13 C-15 12.67 -15 12.34 -15 12 C-9.06 11.505 -9.06 11.505 -3 11 C-3.66 10.01 -4.32 9.02 -5 8 C-5.99 8 -6.98 8 -8 8 C-10.1875 7 -10.1875 7 -12 6 C-11.34 5.67 -10.68 5.34 -10 5 C-10 3.68 -10 2.36 -10 1 C-7.36 1 -4.72 1 -2 1 C-3 3 -3 3 -6 5 C-2.37206002 3.13433512 -2.37206002 3.13433512 0 0 Z " fill="#F54444" transform="translate(314,500)"/>
<path d="M0 0 C0.33 0 0.66 0 1 0 C1.09796875 1.16015625 1.1959375 2.3203125 1.296875 3.515625 C2.74808418 19.25930181 5.77812121 34.06417981 18.25 45 C18.89453125 45.515625 19.5390625 46.03125 20.203125 46.5625 C21.93048257 47.94438606 23.46586662 49.40904687 25 51 C23.35 50.67 21.7 50.34 20 50 C19.67 50.99 19.34 51.98 19 53 C16.53721199 50.53721199 16.00228745 48.29323018 15 45 C15 45.66 15 46.32 15 47 C14.34 47 13.68 47 13 47 C13 46.34 13 45.68 13 45 C11.515 45.495 11.515 45.495 10 46 C10 45.34 10 44.68 10 44 C9.34 43.67 8.68 43.34 8 43 C8.99 42.34 9.98 41.68 11 41 C7.97263027 35.89386809 7.97263027 35.89386809 3 33 C3.99 33 4.98 33 6 33 C5.65066406 32.13117188 5.30132812 31.26234375 4.94140625 30.3671875 C4.25884766 28.63855469 4.25884766 28.63855469 3.5625 26.875 C2.88380859 25.16957031 2.88380859 25.16957031 2.19140625 23.4296875 C0.21708394 17.74622854 -0.11904622 12.61889983 -0.0625 6.625 C-0.05347656 5.37976563 -0.04445312 4.13453125 -0.03515625 2.8515625 C-0.02355469 1.91054688 -0.01195312 0.96953125 0 0 Z M7 44 C7.66 44.33 8.32 44.66 9 45 C8.67 45.66 8.34 46.32 8 47 C7.34 46.34 6.68 45.68 6 45 C6.33 44.67 6.66 44.34 7 44 Z " fill="#F4514F" transform="translate(207,436)"/>
<path d="M0 0 C6.46616343 6.46616343 6.37343604 20.19360153 6.375 28.75 C6.3764502 29.60706543 6.37790039 30.46413086 6.37939453 31.34716797 C6.30042916 35.79850797 6.07327499 37.85345003 4 42 C4 33.75 4 25.5 4 17 C3.34 17 2.68 17 2 17 C1.67 17.99 1.34 18.98 1 20 C0.67 18.02 0.34 16.04 0 14 C-0.99 13.67 -1.98 13.34 -3 13 C-3.33 12.01 -3.66 11.02 -4 10 C-2.68 9.67 -1.36 9.34 0 9 C0.99 10.485 0.99 10.485 2 12 C1.67 10.7625 1.34 9.525 1 8.25 C0.20108841 5.25408155 0 3.19892281 0 0 Z " fill="#F44B49" transform="translate(333,414)"/>
<path d="M0 0 C10.56 0 21.12 0 32 0 C32 0.33 32 0.66 32 1 C23.75 1 15.5 1 7 1 C7.99 3.31 8.98 5.62 10 8 C9.01 8.33 8.02 8.66 7 9 C7.66 10.98 8.32 12.96 9 15 C4.82093105 11.44005237 2.31440569 6.91336946 0 2 C0 1.34 0 0.68 0 0 Z " fill="#F74C4C" transform="translate(256,455)"/>
<path d="M0 0 C1.71335977 0.77586198 1.71335977 0.77586198 3.70703125 0.65625 C4.20203125 2.14125 4.20203125 2.14125 4.70703125 3.65625 C3.82917969 3.4396875 3.82917969 3.4396875 2.93359375 3.21875 C-3.2646469 1.87858986 -9.22582584 1.4635667 -15.54296875 1.46875 C-16.67677979 1.4677832 -16.67677979 1.4677832 -17.83349609 1.46679688 C-22.41092927 1.51099417 -26.77658209 1.90949295 -31.29296875 2.65625 C-30.96296875 1.66625 -30.63296875 0.67625 -30.29296875 -0.34375 C-20.15537974 -2.90675219 -9.88609292 -3.96177378 0 0 Z " fill="#1A1715" transform="translate(558.29296875,559.34375)"/>
<path d="M0 0 C8.25 0 16.5 0 25 0 C25 6.93 25 13.86 25 21 C24.67 21 24.34 21 24 21 C23.15715558 14.46795572 23 8.74067955 23 2 C15.41 2 7.82 2 0 2 C0 1.34 0 0.68 0 0 Z " fill="#DFDCD6" transform="translate(393,562)"/>
<path d="M0 0 C1.09731445 0.00676758 1.09731445 0.00676758 2.21679688 0.01367188 C3.99873419 0.02531852 5.78062863 0.04324809 7.5625 0.0625 C7.70535714 7.71428571 7.70535714 7.71428571 5.5625 11.0625 C4.5625 8.0625 4.5625 8.0625 4.5625 3.0625 C-2.6975 3.0625 -9.9575 3.0625 -17.4375 3.0625 C-13.210241 -1.164759 -5.6992118 -0.06778568 0 0 Z " fill="#12100E" transform="translate(648.4375,612.9375)"/>
<path d="M0 0 C0.33 0 0.66 0 1 0 C1 16.17 1 32.34 1 49 C1.66 49 2.32 49 3 49 C2.6875 51.375 2.6875 51.375 2 54 C1.01 54.66 0.02 55.32 -1 56 C-0.67 37.52 -0.34 19.04 0 0 Z " fill="#1B1512" transform="translate(631,398)"/>
<path d="M0 0 C10.56 0 21.12 0 32 0 C32 0.66 32 1.32 32 2 C31.34 2 30.68 2 30 2 C29.67 2.99 29.34 3.98 29 5 C28.67 4.34 28.34 3.68 28 3 C18.76 3 9.52 3 0 3 C0 2.01 0 1.02 0 0 Z " fill="#E5E0D4" transform="translate(666,416)"/>
<path d="M0 0 C2 2 2 2 2.22705078 4.43017578 C2.21657715 5.4251709 2.20610352 6.42016602 2.1953125 7.4453125 C2.18564453 9.05986328 2.18564453 9.05986328 2.17578125 10.70703125 C2.15902344 11.83496094 2.14226562 12.96289062 2.125 14.125 C2.11597656 15.26066406 2.10695312 16.39632813 2.09765625 17.56640625 C2.07403098 20.37781299 2.04109013 23.18880298 2 26 C1.01 26 0.02 26 -1 26 C-2.91958154 17.12193539 -2.28498363 8.71150008 0 0 Z " fill="#230C0A" transform="translate(210,428)"/>
<path d="M0 0 C0.66 0.66 1.32 1.32 2 2 C1.01 2.99 0.02 3.98 -1 5 C-0.67 5.66 -0.34 6.32 0 7 C-0.99 7.495 -0.99 7.495 -2 8 C-1.67 9.32 -1.34 10.64 -1 12 C-2.32 12.33 -3.64 12.66 -5 13 C-5.66 11.68 -6.32 10.36 -7 9 C-8.32 9.99 -9.64 10.98 -11 12 C-10.67 9.36 -10.34 6.72 -10 4 C-5.05 3.01 -5.05 3.01 0 2 C0 1.34 0 0.68 0 0 Z " fill="#F13E3D" transform="translate(189,440)"/>
<path d="M0 0 C0.721875 0.144375 1.44375 0.28875 2.1875 0.4375 C3.5796875 0.7159375 3.5796875 0.7159375 5 1 C5.7115625 1.1546875 6.423125 1.309375 7.15625 1.46875 C10.85834801 2.16035073 14.57454961 2.61154084 18.3125 3.0625 C19.42334961 3.19881836 19.42334961 3.19881836 20.55664062 3.33789062 C22.37088758 3.56028219 24.18541624 3.78037353 26 4 C20.99298648 6.99228665 15.65452145 6.49765559 10 6 C7.11872286 5.240151 4.71865805 4.25476526 2 3 C2 2.34 2 1.68 2 1 C1.34 0.67 0.68 0.34 0 0 Z " fill="#E9E6DE" transform="translate(373,508)"/>
<path d="M0 0 C2.475 0.99 2.475 0.99 5 2 C4.67 3.32 4.34 4.64 4 6 C5.65 6.66 7.3 7.32 9 8 C9 8.33 9 8.66 9 9 C2.07 9 -4.86 9 -12 9 C-12 8.67 -12 8.34 -12 8 C-7.545 7.505 -7.545 7.505 -3 7 C-3 5.68 -3 4.36 -3 3 C-2.01 2.67 -1.02 2.34 0 2 C0 1.34 0 0.68 0 0 Z " fill="#F94A4A" transform="translate(257,510)"/>
<path d="M0 0 C5.94 0 11.88 0 18 0 C18.33 0.99 18.66 1.98 19 3 C11.08 3 3.16 3 -5 3 C-5 2.67 -5 2.34 -5 2 C-3.35 2 -1.7 2 0 2 C0 1.34 0 0.68 0 0 Z " fill="#1C1814" transform="translate(551,411)"/>
<path d="M0 0 C0.65355469 0.58007812 0.65355469 0.58007812 1.3203125 1.171875 C5.05744652 4.43984501 8.8076016 7.34140589 13 10 C12.01 10.495 12.01 10.495 11 11 C10.01 10.67 9.02 10.34 8 10 C7.67 10.99 7.34 11.98 7 13 C4.53721199 10.53721199 4.00228745 8.29323018 3 5 C3 5.66 3 6.32 3 7 C2.34 7 1.68 7 1 7 C1 6.34 1 5.68 1 5 C0.01 5.33 -0.98 5.66 -2 6 C-2 5.34 -2 4.68 -2 4 C-2.66 3.67 -3.32 3.34 -4 3 C-3.01 2.67 -2.02 2.34 -1 2 C-0.67 1.34 -0.34 0.68 0 0 Z M-5 4 C-4.34 4.33 -3.68 4.66 -3 5 C-3.33 5.66 -3.66 6.32 -4 7 C-4.66 6.34 -5.32 5.68 -6 5 C-5.67 4.67 -5.34 4.34 -5 4 Z " fill="#F74949" transform="translate(219,476)"/>
<path d="M0 0 C0.66 0.33 1.32 0.66 2 1 C2 8 2 15 2 22 C1.01 22.33 0.02 22.66 -1 23 C-1.02887512 19.35418313 -1.04675585 15.70839537 -1.0625 12.0625 C-1.07087891 11.02158203 -1.07925781 9.98066406 -1.08789062 8.90820312 C-1.09272461 7.42416992 -1.09272461 7.42416992 -1.09765625 5.91015625 C-1.10289307 4.99371338 -1.10812988 4.07727051 -1.11352539 3.13305664 C-1 1 -1 1 0 0 Z " fill="#D6D2CE" transform="translate(607,565)"/>
<path d="M0 0 C0.79921875 0.03609375 1.5984375 0.0721875 2.421875 0.109375 C3.02515625 0.15578125 3.6284375 0.2021875 4.25 0.25 C1.25 2.25 1.25 2.25 -6.75 5.25 C-7.08 12.51 -7.41 19.77 -7.75 27.25 C-7.09 27.58 -6.43 27.91 -5.75 28.25 C-7.07 28.58 -8.39 28.91 -9.75 29.25 C-9.69816332 25.1656272 -9.6030929 21.08337529 -9.5 17 C-9.48582031 15.84113281 -9.47164062 14.68226563 -9.45703125 13.48828125 C-9.42480469 12.37324219 -9.39257812 11.25820313 -9.359375 10.109375 C-9.33842773 9.08295898 -9.31748047 8.05654297 -9.29589844 6.99902344 C-8.25288443 1.74663627 -5.1756086 -0.30444756 0 0 Z " fill="#030202" transform="translate(613.75,560.75)"/>
<path d="M0 0 C6.27 0 12.54 0 19 0 C18.67 0.99 18.34 1.98 18 3 C13.05 3 8.1 3 3 3 C3 2.34 3 1.68 3 1 C2.01 0.67 1.02 0.34 0 0 Z " fill="#E6E3DC" transform="translate(539,635)"/>
<path d="M0 0 C0.99 0 1.98 0 3 0 C3 2.31 3 4.62 3 7 C-2.28 7 -7.56 7 -13 7 C-12.67 6.01 -12.34 5.02 -12 4 C-8.04 4 -4.08 4 0 4 C0 2.68 0 1.36 0 0 Z " fill="#2D2825" transform="translate(653,591)"/>
<path d="M0 0 C5.28 0 10.56 0 16 0 C16 0.66 16 1.32 16 2 C18.31 2.33 20.62 2.66 23 3 C23 3.66 23 4.32 23 5 C22.12601563 4.7834375 22.12601563 4.7834375 21.234375 4.5625 C14.41659555 3.01885182 7.97305646 2.78433846 1 3 C0.67 2.01 0.34 1.02 0 0 Z " fill="#181614" transform="translate(743,557)"/>
<path d="M0 0 C-3.75013415 2.50008943 -6.72511906 2.29601996 -11.0625 2.25 C-11.79533203 2.25773438 -12.52816406 2.26546875 -13.28320312 2.2734375 C-18.74663018 2.25336982 -18.74663018 2.25336982 -21 0 C-13.91200105 -1.01257128 -7.04857774 -1.76214443 0 0 Z " fill="#ECE7DF" transform="translate(761,560)"/>
<path d="M0 0 C2.31 0.33 4.62 0.66 7 1 C7.66 2.65 8.32 4.3 9 6 C1.08 5.67 -6.84 5.34 -15 5 C-15 4.67 -15 4.34 -15 4 C-10.05 3.67 -5.1 3.34 0 3 C0 2.01 0 1.02 0 0 Z " fill="#F84D4D" transform="translate(314,508)"/>
<path d="M0 0 C0.99 0.66 1.98 1.32 3 2 C3.66 1.67 4.32 1.34 5 1 C3.66511872 4.59391114 2.03977277 7.75490696 0 11 C-0.33 10.34 -0.66 9.68 -1 9 C-0.67 8.34 -0.34 7.68 0 7 C-1.2065625 6.566875 -1.2065625 6.566875 -2.4375 6.125 C-5 5 -5 5 -6 3 C-4.02 2.01 -2.04 1.02 0 0 Z " fill="#F64848" transform="translate(212,413)"/>
<path d="M0 0 C3 1 3 1 4 2 C4.23287008 3.68183948 4.41264166 5.3712416 4.5625 7.0625 C4.64628906 7.98160156 4.73007812 8.90070313 4.81640625 9.84765625 C4.87699219 10.55792969 4.93757813 11.26820313 5 12 C4.34 12 3.68 12 3 12 C2.67 12.66 2.34 13.32 2 14 C1.34 12.35 0.68 10.7 0 9 C-0.66 9 -1.32 9 -2 9 C-2 8.01 -2 7.02 -2 6 C-0.68 6 0.64 6 2 6 C2.33 5.34 2.66 4.68 3 4 C2.01 3.67 1.02 3.34 0 3 C0 2.01 0 1.02 0 0 Z " fill="#F03C3C" transform="translate(333,446)"/>
<path d="M0 0 C0.33 0.66 0.66 1.32 1 2 C0.5359375 2.86625 0.5359375 2.86625 0.0625 3.75 C-1.36930806 6.78206413 -1.47450152 8.67848937 -1 12 C1.25 14.75 1.25 14.75 4 17 C5 18 6 19 7 20 C3.12294944 19.42562214 0.88456423 17.57271945 -2 15 C-3.71535658 11.56928684 -3.4006478 7.75941181 -3 4 C-1.5 1.4375 -1.5 1.4375 0 0 Z " fill="#0A0806" transform="translate(287,553)"/>
<path d="M0 0 C0.33 0 0.66 0 1 0 C1.28571429 7.42857143 1.28571429 7.42857143 -1 11 C-2 8 -2 8 -2 3 C-6.29 3 -10.58 3 -15 3 C-15 2.67 -15 2.34 -15 2 C-10.38 2 -5.76 2 -1 2 C-0.67 1.34 -0.34 0.68 0 0 Z " fill="#1B1715" transform="translate(655,613)"/>
<path d="M0 0 C0 3 0 3 0 3 Z M-8 1 C-7.34 1.33 -6.68 1.66 -6 2 C-5.01 2 -4.02 2 -3 2 C-1.34043892 3.91487817 -0.13211641 5.73576718 1 8 C-0.32 8 -1.64 8 -3 8 C-3 7.01 -3 6.02 -3 5 C-4.65 5 -6.3 5 -8 5 C-8 5.99 -8 6.98 -8 8 C-8.66 8 -9.32 8 -10 8 C-9.34 5.69 -8.68 3.38 -8 1 Z " fill="#F74A49" transform="translate(314,458)"/>
<path d="M0 0 C0.66 0 1.32 0 2 0 C2.33 0.99 2.66 1.98 3 3 C2.67 3.66 2.34 4.32 2 5 C1.34 5 0.68 5 0 5 C0 10.28 0 15.56 0 21 C-0.33 21 -0.66 21 -1 21 C-1.33 14.73 -1.66 8.46 -2 2 C-1.34 2 -0.68 2 0 2 C0 1.34 0 0.68 0 0 Z " fill="#FA4F4E" transform="translate(310,429)"/>
<path d="M0 0 C2.94721162 2.74395564 5.19168608 5.38337216 7 9 C6.67 9.66 6.34 10.32 6 11 C5.01 11.33 4.02 11.66 3 12 C2.31292445 9.50935112 2 7.62113708 2 5 C1.01 5.495 1.01 5.495 0 6 C-1.125 2.25 -1.125 2.25 0 0 Z " fill="#F54A49" transform="translate(290,460)"/>
<path d="M0 0 C5.61 0.66 11.22 1.32 17 2 C17 2.33 17 2.66 17 3 C13.37 3 9.74 3 6 3 C5.67 4.32 5.34 5.64 5 7 C4.34 6.67 3.68 6.34 3 6 C2.65657551 4.66923011 2.32380126 3.33568021 2 2 C1.34 1.34 0.68 0.68 0 0 Z " fill="#FBFAF4" transform="translate(397,633)"/>
<path d="M0 0 C6.64615385 1.47692308 6.64615385 1.47692308 8.4375 4.125 C8.7159375 5.053125 8.7159375 5.053125 9 6 C8.01 6.495 8.01 6.495 7 7 C7.33 7.66 7.66 8.32 8 9 C7.01 9.33 6.02 9.66 5 10 C4.9175 9.05125 4.835 8.1025 4.75 7.125 C4.34925077 3.89538209 4.34925077 3.89538209 1.9375 2.625 C1.298125 2.41875 0.65875 2.2125 0 2 C0 1.34 0 0.68 0 0 Z " fill="#F03E3E" transform="translate(240,368)"/>
<path d="M0 0 C0.99 0 1.98 0 3 0 C3.3690205 9.41002278 3.3690205 9.41002278 1 14 C0.67 14 0.34 14 0 14 C0 9.38 0 4.76 0 0 Z " fill="#EBE7DE" transform="translate(586,598)"/>
<path d="M0 0 C-3 2 -3 2 -7 2 C-7 2.66 -7 3.32 -7 4 C-12.94 3.01 -12.94 3.01 -19 2 C-19 1.67 -19 1.34 -19 1 C-18.10796875 0.93941406 -17.2159375 0.87882812 -16.296875 0.81640625 C-14.54117188 0.69072266 -14.54117188 0.69072266 -12.75 0.5625 C-11.58984375 0.48128906 -10.4296875 0.40007812 -9.234375 0.31640625 C-6.13050083 0.09788188 -6.13050083 0.09788188 -3.703125 -0.59765625 C-2 -1 -2 -1 0 0 Z " fill="#DFDAD3" transform="translate(576,491)"/>
<path d="M0 0 C-0.99 1.32 -1.98 2.64 -3 4 C-2.34 4 -1.68 4 -1 4 C-0.67 3.01 -0.34 2.02 0 1 C0.66 1.66 1.32 2.32 2 3 C0.625 4.5 0.625 4.5 -1 6 C-1.66 6 -2.32 6 -3 6 C-3.33 6.66 -3.66 7.32 -4 8 C-4.66 5.36 -5.32 2.72 -6 0 C-2 -1 -2 -1 0 0 Z " fill="#F43C3D" transform="translate(309,472)"/>
<path d="M0 0 C0 0.66 0 1.32 0 2 C0.99 2 1.98 2 3 2 C3 2.66 3 3.32 3 4 C-2.28 3.34 -7.56 2.68 -13 2 C-13 1.67 -13 1.34 -13 1 C-8.60563789 0.14256349 -4.47427924 -0.08948558 0 0 Z " fill="#EAE7DF" transform="translate(314,547)"/>
<path d="M0 0 C0.33 0.66 0.66 1.32 1 2 C4.465 1.505 4.465 1.505 8 1 C6.02 3.31 4.04 5.62 2 8 C1.34 6.68 0.68 5.36 0 4 C-0.66 3.34 -1.32 2.68 -2 2 C-1.34 1.34 -0.68 0.68 0 0 Z " fill="#F94C4B" transform="translate(217,405)"/>
<path d="M0 0 C1.32 0 2.64 0 4 0 C4.33 2.31 4.66 4.62 5 7 C4.01 7 3.02 7 2 7 C0.66018514 7.3062434 -0.67511887 7.63451555 -2 8 C-1.67 6.68 -1.34 5.36 -1 4 C0.32 4 1.64 4 3 4 C1.68 3.01 0.36 2.02 -1 1 C-0.67 0.67 -0.34 0.34 0 0 Z " fill="#F33C3D" transform="translate(203,388)"/>
<path d="M0 0 C3.39192363 0.59283621 5.2107757 1.76743189 7.75 4.0625 C8.67039062 4.88427734 8.67039062 4.88427734 9.609375 5.72265625 C10.29773438 6.35494141 10.29773438 6.35494141 11 7 C7.42424104 7 5.94704065 5.91159393 3 4 C2.67 4.66 2.34 5.32 2 6 C1.34 4.02 0.68 2.04 0 0 Z " fill="#F54D4D" transform="translate(304,380)"/>
<path d="M0 0 C0.33 0 0.66 0 1 0 C1 3.96 1 7.92 1 12 C0.01 12.33 -0.98 12.66 -2 13 C-2.16682272 8.07872966 -2.24828052 4.49656104 0 0 Z " fill="#ECE8E0" transform="translate(342,610)"/>
<path d="M0 0 C1.79133978 -0.05391993 3.58313899 -0.09275571 5.375 -0.125 C6.37273438 -0.14820313 7.37046875 -0.17140625 8.3984375 -0.1953125 C11 0 11 0 13 2 C10.65897141 3.17051429 9.10647047 3.1992246 6.5 3.25 C5.30890625 3.28867187 5.30890625 3.28867187 4.09375 3.328125 C3.4028125 3.21984375 2.711875 3.1115625 2 3 C1.34 2.01 0.68 1.02 0 0 Z " fill="#E7E0D5" transform="translate(538,578)"/>
<path d="M0 0 C0.33 0.66 0.66 1.32 1 2 C0.15695312 1.72349609 0.15695312 1.72349609 -0.703125 1.44140625 C-3.38260374 0.92647241 -5.11546311 1.27886578 -7.75 1.9375 C-8.54921875 2.13214844 -9.3484375 2.32679688 -10.171875 2.52734375 C-11.07679688 2.76130859 -11.07679688 2.76130859 -12 3 C-12 2.01 -12 1.02 -12 0 C-7.73933592 -0.7518819 -4.1734802 -1.35024359 0 0 Z " fill="#F44B4B" transform="translate(295,512)"/>
<path d="M0 0 C0.66 0.33 1.32 0.66 2 1 C-3.0022779 9.6309795 -3.0022779 9.6309795 -7 12 C-5.61735163 9.13132769 -4.07851447 6.43975968 -2.375 3.75 C-1.92898438 3.04359375 -1.48296875 2.3371875 -1.0234375 1.609375 C-0.68570312 1.07828125 -0.34796875 0.5471875 0 0 Z " fill="#0D0403" transform="translate(329,480)"/>
<path d="M0 0 C0.28875 0.598125 0.5775 1.19625 0.875 1.8125 C2.04742026 4.19327792 2.04742026 4.19327792 4 7 C4 7.99 4 8.98 4 10 C3.01 10 2.02 10 1 10 C0.63883954 8.5225254 0.28624952 7.04295325 -0.0625 5.5625 C-0.25972656 4.73878906 -0.45695312 3.91507812 -0.66015625 3.06640625 C-0.82837891 2.04353516 -0.82837891 2.04353516 -1 1 C-0.67 0.67 -0.34 0.34 0 0 Z " fill="#E9E6E0" transform="translate(508,474)"/>
<path d="M0 0 C1.15941038 3.47823115 0.70820884 5.45895578 0 9 C-0.33 8.34 -0.66 7.68 -1 7 C-1.99 7.33 -2.98 7.66 -4 8 C-3.67 6.02 -3.34 4.04 -3 2 C-2.01 2 -1.02 2 0 2 C0 1.34 0 0.68 0 0 Z " fill="#F84A48" transform="translate(311,450)"/>
<path d="M0 0 C2.62386487 3.06117568 3 3.73173127 3 8 C2.34 8 1.68 8 1 8 C0.67 7.34 0.34 6.68 0 6 C0 7.32 0 8.64 0 10 C-0.66 10 -1.32 10 -2 10 C-2.25 3.375 -2.25 3.375 0 0 Z " fill="#F94B49" transform="translate(181,446)"/>
<path d="M0 0 C3.73884332 2.65654657 5.64978174 4.58110387 7 9 C5.35 7.68 3.7 6.36 2 5 C1.67 5.66 1.34 6.32 1 7 C0.34 5.02 -0.32 3.04 -1 1 C-0.67 0.67 -0.34 0.34 0 0 Z " fill="#F14C4B" transform="translate(320,393)"/>
<path d="M0 0 C1.21236328 0.04060547 1.21236328 0.04060547 2.44921875 0.08203125 C3.06410156 0.11683594 3.67898438 0.15164063 4.3125 0.1875 C3.3225 1.6725 3.3225 1.6725 2.3125 3.1875 C-0.0703125 3.48046875 -0.0703125 3.48046875 -2.8125 3.375 C-3.72257813 3.34792969 -4.63265625 3.32085938 -5.5703125 3.29296875 C-6.26898437 3.25816406 -6.96765625 3.22335937 -7.6875 3.1875 C-5.26849268 0.20484049 -3.789448 -0.16475861 0 0 Z " fill="#EFEADD" transform="translate(636.6875,558.8125)"/>
<path d="M0 0 C1.670625 0.061875 1.670625 0.061875 3.375 0.125 C3.375 1.115 3.375 2.105 3.375 3.125 C0.405 2.795 -2.565 2.465 -5.625 2.125 C-3.625 0.125 -3.625 0.125 0 0 Z " fill="#EBE8E0" transform="translate(619.625,651.875)"/>
<path d="M0 0 C0.99 0.33 1.98 0.66 3 1 C2.34 1 1.68 1 1 1 C0.67 2.32 0.34 3.64 0 5 C-2.31 4.67 -4.62 4.34 -7 4 C-6.1028125 3.566875 -6.1028125 3.566875 -5.1875 3.125 C-2.80672208 1.95257974 -2.80672208 1.95257974 0 0 Z " fill="#E54141" transform="translate(277,488)"/>
<path d="M0 0 C0.99 0 1.98 0 3 0 C3 2.97 3 5.94 3 9 C2.34 9 1.68 9 1 9 C-0.4783226 6.04335481 -0.06032783 3.25770263 0 0 Z " fill="#240B0A" transform="translate(306,435)"/>
<path d="M0 0 C0.66 1.32 1.32 2.64 2 4 C0.68 5.32 -0.64 6.64 -2 8 C-2.33 7.01 -2.66 6.02 -3 5 C-1.5625 2.3125 -1.5625 2.3125 0 0 Z " fill="#080606" transform="translate(340,632)"/>
<path d="M0 0 C5.75 1.875 5.75 1.875 8 3 C7.67 3.99 7.34 4.98 7 6 C3.535 4.02 3.535 4.02 0 2 C0 1.34 0 0.68 0 0 Z " fill="#1B1817" transform="translate(322,553)"/>
<path d="M0 0 C2.29633824 3.44450737 2.54016485 5.93812283 3 10 C-1.42857143 4.85714286 -1.42857143 4.85714286 -2 1 C-1.34 0.67 -0.68 0.34 0 0 Z " fill="#EEECE6" transform="translate(359,491)"/>
<path d="M0 0 C0.66 0.33 1.32 0.66 2 1 C2 1.66 2 2.32 2 3 C3.65 3 5.3 3 7 3 C6.38125 3.28875 5.7625 3.5775 5.125 3.875 C2.86674235 4.93720042 2.86674235 4.93720042 1 7 C0.34 7 -0.32 7 -1 7 C-0.67 4.69 -0.34 2.38 0 0 Z " fill="#EF3F3F" transform="translate(180,451)"/>
<path d="M0 0 C0.763125 0.309375 1.52625 0.61875 2.3125 0.9375 C4.18789677 1.67893593 6.08684652 2.36228217 8 3 C7.67 4.32 7.34 5.64 7 7 C6.34 6.67 5.68 6.34 5 6 C5 5.34 5 4.68 5 4 C4.360625 3.71125 3.72125 3.4225 3.0625 3.125 C1 2 1 2 0 0 Z " fill="#220B09" transform="translate(312,384)"/>
<path d="M0 0 C0.66 0.33 1.32 0.66 2 1 C1.375 2.875 1.375 2.875 0 5 C-3.125 6.25 -3.125 6.25 -6 7 C-4.02 4.69 -2.04 2.38 0 0 Z " fill="#E1DFD8" transform="translate(658,424)"/>
<path d="M0 0 C0 0.99 0 1.98 0 3 C-2.3125 3.625 -2.3125 3.625 -5 4 C-5.99 3.34 -6.98 2.68 -8 2 C-5.09399739 0.74335022 -3.20395416 0 0 0 Z " fill="#E7E4DD" transform="translate(542,416)"/>
<path d="M0 0 C3.3 0.33 6.6 0.66 10 1 C10 1.33 10 1.66 10 2 C3.375 3.125 3.375 3.125 0 2 C0 1.34 0 0.68 0 0 Z " fill="#181615" transform="translate(269,653)"/>
<path d="M0 0 C3.68754757 0.49831724 5.60490662 1.10067643 8 4 C5 5 5 5 2.3125 3.6875 C1.549375 3.130625 0.78625 2.57375 0 2 C0 1.34 0 0.68 0 0 Z " fill="#151411" transform="translate(550,582)"/>
<path d="M0 0 C-0.66 0.66 -1.32 1.32 -2 2 C-5.625 1.625 -5.625 1.625 -9 1 C-5.64919071 -1.10976881 -3.77897651 -1.0497157 0 0 Z " fill="#ECE9E3" transform="translate(485,561)"/>
<path d="M0 0 C0.66 0.33 1.32 0.66 2 1 C2 1.66 2 2.32 2 3 C2.66 3.33 3.32 3.66 4 4 C3.34 4 2.68 4 2 4 C1.67 4.66 1.34 5.32 1 6 C-0.32 4.35 -1.64 2.7 -3 1 C-2.01 0.67 -1.02 0.34 0 0 Z " fill="#FA4B4D" transform="translate(296,405)"/>
</svg>
